<svg version="1.0" xmlns="http://www.w3.org/2000/svg"
 width="980.000000pt" height="980.000000pt" viewBox="0 0 980.000000 980.000000"
 preserveAspectRatio="xMidYMid meet">

<g transform="translate(0.000000,980.000000) scale(0.100000,-0.100000)"
fill="#0BC6B4" stroke="none">
<path d="M4940 8220 c-719 -58 -1432 -356 -1975 -824 -112 -96 -311 -294 -388
-386 -40 -47 -75 -87 -78 -90 -13 -12 -160 -212 -208 -283 -138 -206 -292
-493 -386 -719 -42 -103 -116 -308 -111 -308 2 0 19 26 36 58 105 186 338 514
521 731 106 128 383 413 499 516 395 349 825 603 1260 744 471 152 1200 241
1736 213 322 -17 514 -45 785 -113 270 -68 519 -159 760 -279 142 -71 134 -56
-36 60 -519 357 -1086 579 -1686 660 -175 24 -555 34 -729 20z"/>
<path d="M5600 7629 c-1211 -77 -2187 -464 -2850 -1129 -239 -239 -407 -471
-546 -755 -200 -409 -283 -807 -255 -1230 40 -597 168 -1053 389 -1383 54 -81
180 -227 189 -218 2 2 -9 35 -25 73 -83 195 -133 440 -153 758 -11 166 -5 485
8 471 3 -3 12 -49 20 -103 18 -128 62 -302 109 -433 99 -275 320 -644 503
-841 l50 -54 -49 99 c-122 243 -206 546 -245 874 -8 70 -18 147 -21 172 -8 63
6 44 56 -75 281 -666 739 -1238 1315 -1640 474 -331 1116 -581 1645 -640 54
-6 52 -4 -125 88 -755 392 -1298 812 -1711 1322 -57 70 -174 237 -223 319 -86
141 -222 438 -208 452 2 2 29 -33 60 -79 285 -420 811 -833 1371 -1079 778
-340 1631 -442 2356 -281 152 33 385 112 516 173 111 52 228 119 221 127 -3 2
-69 -7 -148 -21 -175 -31 -346 -52 -541 -66 -572 -40 -1132 55 -1563 265 -125
61 -278 156 -339 210 -35 30 -27 31 56 5 180 -55 436 -86 633 -75 276 15 583
92 786 196 l64 33 -60 7 c-33 4 -132 15 -220 24 -642 67 -1100 178 -1395 338
-365 198 -595 459 -971 1102 -164 282 -213 432 -213 655 0 108 5 152 23 220
91 342 377 657 816 897 l80 44 -60 -6 c-97 -11 -281 -62 -397 -111 -322 -136
-632 -417 -851 -772 -73 -117 -174 -319 -223 -446 l-39 -98 -3 76 c-4 98 20
282 54 416 141 557 556 1027 1172 1326 117 57 282 124 336 138 16 4 26 9 24
11 -8 8 -248 -54 -373 -96 -135 -46 -379 -160 -512 -240 -208 -124 -394 -273
-585 -466 -216 -219 -370 -418 -520 -675 -43 -72 -78 -129 -78 -126 0 3 11 39
25 81 237 726 767 1311 1559 1718 376 193 797 340 1226 429 l135 28 -85 0
c-47 -1 -141 -4 -210 -9z"/>
</g>
</svg>
